<mxfile host="app.diagrams.net" modified="2021-03-25T14:41:59.942Z" agent="5.0 (Windows NT 10.0; Win64; x64) AppleWebKit/537.36 (KHTML, like Gecko) Chrome/89.0.4389.90 Safari/537.36" etag="IGwWG6Dk3Rvr4DRwa7OZ" version="14.5.1" type="github" pages="2">
  <diagram name="关卡流程图" id="0783ab3e-0a74-02c8-0abd-f7b4e66b4bec">
    <mxGraphModel dx="1038" dy="1648" grid="1" gridSize="10" guides="1" tooltips="1" connect="1" arrows="1" fold="1" page="1" pageScale="1" pageWidth="850" pageHeight="1100" background="#ffffff" math="0" shadow="0">
      <root>
        <mxCell id="0" />
        <mxCell id="1" parent="0" />
        <mxCell id="1c1d494c118603dd-1" value="Story" style="swimlane;html=1;childLayout=stackLayout;startSize=20;rounded=0;shadow=0;comic=0;labelBackgroundColor=none;strokeWidth=1;fontFamily=Verdana;fontSize=12;align=center;" parent="1" vertex="1">
          <mxGeometry x="30" y="-1080" width="1280" height="1830" as="geometry" />
        </mxCell>
        <mxCell id="1c1d494c118603dd-2" value="&lt;span style=&quot;font-family: &amp;#34;verdana&amp;#34; ; font-weight: 400&quot;&gt;EP01-01&lt;/span&gt;" style="swimlane;html=1;startSize=20;" parent="1c1d494c118603dd-1" vertex="1">
          <mxGeometry y="20" width="250" height="1810" as="geometry" />
        </mxCell>
        <mxCell id="60571a20871a0731-8" value="EP01-01_0" style="rounded=1;whiteSpace=wrap;html=1;shadow=0;comic=0;labelBackgroundColor=none;strokeWidth=1;fontFamily=Verdana;fontSize=12;align=center;arcSize=50;" parent="1c1d494c118603dd-2" vertex="1">
          <mxGeometry x="30" y="100" width="100" height="30" as="geometry" />
        </mxCell>
        <mxCell id="soN0B9OmbE9krU4sowRZ-2" style="edgeStyle=none;rounded=0;html=1;dashed=1;labelBackgroundColor=none;startArrow=none;startFill=0;startSize=5;endArrow=oval;endFill=0;endSize=5;jettySize=auto;orthogonalLoop=1;strokeWidth=1;fontFamily=Verdana;fontSize=12;entryX=0.5;entryY=1;entryDx=0;entryDy=0;exitX=0.5;exitY=0;exitDx=0;exitDy=0;exitPerimeter=0;" parent="1c1d494c118603dd-2" source="soN0B9OmbE9krU4sowRZ-1" target="60571a20871a0731-8" edge="1">
          <mxGeometry relative="1" as="geometry">
            <mxPoint x="150" y="257.8780487804878" as="sourcePoint" />
            <mxPoint x="112.9545454545455" y="238" as="targetPoint" />
          </mxGeometry>
        </mxCell>
        <mxCell id="1c1d494c118603dd-27" style="edgeStyle=orthogonalEdgeStyle;rounded=0;html=1;labelBackgroundColor=none;startArrow=none;startFill=0;startSize=5;endArrow=classicThin;endFill=1;endSize=5;jettySize=auto;orthogonalLoop=1;strokeWidth=1;fontFamily=Verdana;fontSize=12" parent="1c1d494c118603dd-2" target="60571a20871a0731-8" edge="1">
          <mxGeometry relative="1" as="geometry">
            <mxPoint x="80" y="70" as="sourcePoint" />
          </mxGeometry>
        </mxCell>
        <mxCell id="soN0B9OmbE9krU4sowRZ-1" value="EP01-01" style="shape=note;whiteSpace=wrap;html=1;rounded=0;shadow=0;comic=0;labelBackgroundColor=none;strokeWidth=1;fontFamily=Verdana;fontSize=12;align=center;size=20;fillColor=#dae8fc;strokeColor=#6c8ebf;" parent="1c1d494c118603dd-2" vertex="1">
          <mxGeometry x="42.5" y="170" width="75" height="44" as="geometry" />
        </mxCell>
        <mxCell id="soN0B9OmbE9krU4sowRZ-3" value="" style="shape=umlActor;verticalLabelPosition=bottom;verticalAlign=top;html=1;outlineConnect=0;" parent="1c1d494c118603dd-2" vertex="1">
          <mxGeometry x="65" y="30" width="30" height="60" as="geometry" />
        </mxCell>
        <mxCell id="soN0B9OmbE9krU4sowRZ-13" style="edgeStyle=none;rounded=0;orthogonalLoop=1;jettySize=auto;html=1;dashed=1;startArrow=oval;startFill=0;" parent="1c1d494c118603dd-2" source="soN0B9OmbE9krU4sowRZ-12" target="60571a20871a0731-8" edge="1">
          <mxGeometry relative="1" as="geometry" />
        </mxCell>
        <mxCell id="soN0B9OmbE9krU4sowRZ-12" value="出生点" style="shape=card;whiteSpace=wrap;html=1;size=20;fillColor=#d5e8d4;strokeColor=#82b366;" parent="1c1d494c118603dd-2" vertex="1">
          <mxGeometry x="140" y="160" width="80" height="40" as="geometry" />
        </mxCell>
        <mxCell id="soN0B9OmbE9krU4sowRZ-38" style="edgeStyle=none;rounded=0;orthogonalLoop=1;jettySize=auto;html=1;entryX=1;entryY=0.25;entryDx=0;entryDy=0;startArrow=oval;startFill=0;" parent="1c1d494c118603dd-2" source="soN0B9OmbE9krU4sowRZ-37" target="60571a20871a0731-8" edge="1">
          <mxGeometry relative="1" as="geometry" />
        </mxCell>
        <mxCell id="soN0B9OmbE9krU4sowRZ-37" value="船上" style="shape=parallelogram;perimeter=parallelogramPerimeter;whiteSpace=wrap;html=1;fixedSize=1;" parent="1c1d494c118603dd-2" vertex="1">
          <mxGeometry x="120" y="40" width="120" height="40" as="geometry" />
        </mxCell>
        <mxCell id="1c1d494c118603dd-28" style="edgeStyle=orthogonalEdgeStyle;rounded=0;html=1;entryX=0.5;entryY=0;labelBackgroundColor=none;startArrow=none;startFill=0;startSize=5;endArrow=classicThin;endFill=1;endSize=5;jettySize=auto;orthogonalLoop=1;strokeWidth=1;fontFamily=Verdana;fontSize=12" parent="1c1d494c118603dd-1" source="60571a20871a0731-8" target="60571a20871a0731-3" edge="1">
          <mxGeometry relative="1" as="geometry">
            <Array as="points">
              <mxPoint x="390" y="145" />
            </Array>
          </mxGeometry>
        </mxCell>
        <mxCell id="1c1d494c118603dd-3" value="&lt;span style=&quot;font-family: &amp;#34;verdana&amp;#34; ; font-weight: 400&quot;&gt;EP01-02&lt;/span&gt;" style="swimlane;html=1;startSize=20;" parent="1c1d494c118603dd-1" vertex="1">
          <mxGeometry x="250" y="20" width="380" height="1810" as="geometry" />
        </mxCell>
        <mxCell id="60571a20871a0731-3" value="" style="whiteSpace=wrap;html=1;rounded=0;shadow=0;comic=0;labelBackgroundColor=none;strokeWidth=1;fillColor=#000000;fontFamily=Verdana;fontSize=12;align=center;rotation=0;" parent="1c1d494c118603dd-3" vertex="1">
          <mxGeometry y="160" width="290" height="10" as="geometry" />
        </mxCell>
        <mxCell id="CkhX5bCaa37D4_O5Mb_i-23" style="edgeStyle=orthogonalEdgeStyle;rounded=0;orthogonalLoop=1;jettySize=auto;html=1;" parent="1c1d494c118603dd-3" source="1c1d494c118603dd-6" target="CkhX5bCaa37D4_O5Mb_i-21" edge="1">
          <mxGeometry relative="1" as="geometry" />
        </mxCell>
        <mxCell id="1c1d494c118603dd-6" value="EP01-02_0" style="rounded=1;whiteSpace=wrap;html=1;shadow=0;comic=0;labelBackgroundColor=none;strokeWidth=1;fontFamily=Verdana;fontSize=12;align=center;arcSize=50;" parent="1c1d494c118603dd-3" vertex="1">
          <mxGeometry x="91.88" y="240" width="100" height="30" as="geometry" />
        </mxCell>
        <mxCell id="1c1d494c118603dd-30" style="edgeStyle=orthogonalEdgeStyle;rounded=0;html=1;exitX=0.25;exitY=1;entryX=0.5;entryY=0;labelBackgroundColor=none;startArrow=none;startFill=0;startSize=5;endArrow=classicThin;endFill=1;endSize=5;jettySize=auto;orthogonalLoop=1;strokeWidth=1;fontFamily=Verdana;fontSize=12" parent="1c1d494c118603dd-3" source="60571a20871a0731-3" target="1c1d494c118603dd-6" edge="1">
          <mxGeometry relative="1" as="geometry">
            <Array as="points">
              <mxPoint x="142" y="170" />
            </Array>
          </mxGeometry>
        </mxCell>
        <mxCell id="1c1d494c118603dd-46" style="edgeStyle=none;rounded=0;html=1;labelBackgroundColor=none;startArrow=none;startFill=0;startSize=5;endArrow=oval;endFill=0;endSize=5;jettySize=auto;orthogonalLoop=1;strokeWidth=1;fontFamily=Verdana;fontSize=12;dashed=1;exitX=0.88;exitY=0.081;exitDx=0;exitDy=0;exitPerimeter=0;" parent="1c1d494c118603dd-3" source="1c1d494c118603dd-21" target="1c1d494c118603dd-6" edge="1">
          <mxGeometry relative="1" as="geometry">
            <mxPoint x="85.005" y="254" as="sourcePoint" />
          </mxGeometry>
        </mxCell>
        <mxCell id="1c1d494c118603dd-21" value="EP01-02" style="shape=note;whiteSpace=wrap;html=1;rounded=0;shadow=0;comic=0;labelBackgroundColor=none;strokeWidth=1;fontFamily=Verdana;fontSize=12;align=center;size=20;fillColor=#dae8fc;strokeColor=#6c8ebf;" parent="1c1d494c118603dd-3" vertex="1">
          <mxGeometry x="10.000000000000004" y="290" width="85" height="42" as="geometry" />
        </mxCell>
        <mxCell id="soN0B9OmbE9krU4sowRZ-15" style="edgeStyle=none;rounded=0;orthogonalLoop=1;jettySize=auto;html=1;dashed=1;startArrow=oval;startFill=0;entryX=1;entryY=0.25;entryDx=0;entryDy=0;" parent="1c1d494c118603dd-3" target="CkhX5bCaa37D4_O5Mb_i-14" edge="1">
          <mxGeometry relative="1" as="geometry">
            <mxPoint x="220.8767521367522" y="440" as="sourcePoint" />
          </mxGeometry>
        </mxCell>
        <mxCell id="soN0B9OmbE9krU4sowRZ-14" value="通缉令张贴牌前" style="shape=card;whiteSpace=wrap;html=1;size=20;fillColor=#d5e8d4;strokeColor=#82b366;" parent="1c1d494c118603dd-3" vertex="1">
          <mxGeometry x="210" y="400" width="70" height="40" as="geometry" />
        </mxCell>
        <mxCell id="soN0B9OmbE9krU4sowRZ-31" value="" style="whiteSpace=wrap;html=1;rounded=0;shadow=0;comic=0;labelBackgroundColor=none;strokeWidth=1;fillColor=#000000;fontFamily=Verdana;fontSize=12;align=center;rotation=0;" parent="1c1d494c118603dd-3" vertex="1">
          <mxGeometry y="910" width="380" height="10" as="geometry" />
        </mxCell>
        <mxCell id="CkhX5bCaa37D4_O5Mb_i-1" style="edgeStyle=none;rounded=0;orthogonalLoop=1;jettySize=auto;html=1;entryX=0.75;entryY=0;entryDx=0;entryDy=0;startArrow=oval;startFill=0;" parent="1c1d494c118603dd-3" source="CkhX5bCaa37D4_O5Mb_i-2" target="1c1d494c118603dd-6" edge="1">
          <mxGeometry relative="1" as="geometry">
            <mxPoint x="170" y="117.5" as="targetPoint" />
          </mxGeometry>
        </mxCell>
        <mxCell id="CkhX5bCaa37D4_O5Mb_i-2" value="岛上码头" style="shape=parallelogram;perimeter=parallelogramPerimeter;whiteSpace=wrap;html=1;fixedSize=1;" parent="1c1d494c118603dd-3" vertex="1">
          <mxGeometry x="160" y="180" width="120" height="40" as="geometry" />
        </mxCell>
        <mxCell id="CkhX5bCaa37D4_O5Mb_i-14" value="EP01-02_Wanted" style="rounded=1;whiteSpace=wrap;html=1;shadow=0;comic=0;labelBackgroundColor=none;strokeWidth=1;fontFamily=Verdana;fontSize=12;align=center;arcSize=50;" parent="1c1d494c118603dd-3" vertex="1">
          <mxGeometry x="91.88" y="450" width="100" height="30" as="geometry" />
        </mxCell>
        <mxCell id="CkhX5bCaa37D4_O5Mb_i-18" value="EP01-02" style="shape=note;whiteSpace=wrap;html=1;rounded=0;shadow=0;comic=0;labelBackgroundColor=none;strokeWidth=1;fontFamily=Verdana;fontSize=12;align=center;size=20;fillColor=#dae8fc;strokeColor=#6c8ebf;" parent="1c1d494c118603dd-3" vertex="1">
          <mxGeometry x="10" y="510" width="85" height="40" as="geometry" />
        </mxCell>
        <mxCell id="CkhX5bCaa37D4_O5Mb_i-19" style="edgeStyle=none;rounded=0;html=1;labelBackgroundColor=none;startArrow=none;startFill=0;startSize=5;endArrow=oval;endFill=0;endSize=5;jettySize=auto;orthogonalLoop=1;strokeWidth=1;fontFamily=Verdana;fontSize=12;dashed=1;exitX=0;exitY=0;exitDx=75;exitDy=10;exitPerimeter=0;entryX=0.133;entryY=1.087;entryDx=0;entryDy=0;entryPerimeter=0;" parent="1c1d494c118603dd-3" target="CkhX5bCaa37D4_O5Mb_i-14" edge="1">
          <mxGeometry relative="1" as="geometry">
            <mxPoint x="85" y="520" as="sourcePoint" />
            <mxPoint x="130.19558984526543" y="380" as="targetPoint" />
          </mxGeometry>
        </mxCell>
        <mxCell id="CkhX5bCaa37D4_O5Mb_i-24" style="edgeStyle=orthogonalEdgeStyle;rounded=0;orthogonalLoop=1;jettySize=auto;html=1;entryX=0.5;entryY=0;entryDx=0;entryDy=0;" parent="1c1d494c118603dd-3" source="CkhX5bCaa37D4_O5Mb_i-21" target="CkhX5bCaa37D4_O5Mb_i-14" edge="1">
          <mxGeometry relative="1" as="geometry" />
        </mxCell>
        <mxCell id="CkhX5bCaa37D4_O5Mb_i-21" value="通缉令" style="rhombus;whiteSpace=wrap;html=1;align=center;fillColor=#f8cecc;strokeColor=#b85450;" parent="1c1d494c118603dd-3" vertex="1">
          <mxGeometry x="101.88" y="332" width="80" height="80" as="geometry" />
        </mxCell>
        <mxCell id="o7VnYXeNRA8b91w_9cNe-45" style="edgeStyle=orthogonalEdgeStyle;rounded=0;orthogonalLoop=1;jettySize=auto;html=1;entryX=0.5;entryY=0;entryDx=0;entryDy=0;strokeColor=#000000;" parent="1c1d494c118603dd-3" source="CkhX5bCaa37D4_O5Mb_i-20" target="o7VnYXeNRA8b91w_9cNe-44" edge="1">
          <mxGeometry relative="1" as="geometry">
            <Array as="points">
              <mxPoint x="142" y="630" />
              <mxPoint x="206" y="630" />
            </Array>
          </mxGeometry>
        </mxCell>
        <mxCell id="CkhX5bCaa37D4_O5Mb_i-20" value="检查站" style="rhombus;whiteSpace=wrap;html=1;align=center;fillColor=#f8cecc;strokeColor=#b85450;" parent="1c1d494c118603dd-3" vertex="1">
          <mxGeometry x="101.88" y="530" width="80" height="80" as="geometry" />
        </mxCell>
        <mxCell id="CkhX5bCaa37D4_O5Mb_i-25" style="edgeStyle=orthogonalEdgeStyle;rounded=0;orthogonalLoop=1;jettySize=auto;html=1;entryX=0.5;entryY=0;entryDx=0;entryDy=0;" parent="1c1d494c118603dd-3" source="CkhX5bCaa37D4_O5Mb_i-14" target="CkhX5bCaa37D4_O5Mb_i-20" edge="1">
          <mxGeometry relative="1" as="geometry" />
        </mxCell>
        <mxCell id="o7VnYXeNRA8b91w_9cNe-21" value="EP01-02_Wanted_Fail" style="rounded=1;whiteSpace=wrap;html=1;shadow=0;comic=0;labelBackgroundColor=none;strokeWidth=1;fontFamily=Verdana;fontSize=12;align=center;arcSize=50;" parent="1c1d494c118603dd-3" vertex="1">
          <mxGeometry x="10" y="670" width="100" height="30" as="geometry" />
        </mxCell>
        <mxCell id="o7VnYXeNRA8b91w_9cNe-23" value="EP01-02_Wanted_Success" style="rounded=1;whiteSpace=wrap;html=1;shadow=0;comic=0;labelBackgroundColor=none;strokeWidth=1;fontFamily=Verdana;fontSize=12;align=center;arcSize=50;" parent="1c1d494c118603dd-3" vertex="1">
          <mxGeometry x="130" y="770" width="135.95" height="30" as="geometry" />
        </mxCell>
        <mxCell id="o7VnYXeNRA8b91w_9cNe-46" style="edgeStyle=orthogonalEdgeStyle;rounded=0;orthogonalLoop=1;jettySize=auto;html=1;entryX=0.565;entryY=0.033;entryDx=0;entryDy=0;entryPerimeter=0;strokeColor=#000000;" parent="1c1d494c118603dd-3" source="o7VnYXeNRA8b91w_9cNe-44" target="o7VnYXeNRA8b91w_9cNe-23" edge="1">
          <mxGeometry relative="1" as="geometry" />
        </mxCell>
        <mxCell id="o7VnYXeNRA8b91w_9cNe-44" value="&lt;span style=&quot;font-size: 10.5pt&quot;&gt;麦迪克寄的凭证&lt;/span&gt;" style="shape=hexagon;perimeter=hexagonPerimeter2;whiteSpace=wrap;html=1;fixedSize=1;gradientColor=#97d077;fillColor=#d5e8d4;strokeColor=#82b366;" parent="1c1d494c118603dd-3" vertex="1">
          <mxGeometry x="145.95" y="690" width="120" height="30" as="geometry" />
        </mxCell>
        <mxCell id="1c1d494c118603dd-4" value="&lt;span style=&quot;font-family: &amp;#34;verdana&amp;#34; ; font-weight: 400&quot;&gt;EP01-03&lt;/span&gt;" style="swimlane;html=1;startSize=20;fillColor=#dae8fc;strokeColor=#6c8ebf;" parent="1c1d494c118603dd-1" vertex="1">
          <mxGeometry x="630" y="20" width="580" height="1810" as="geometry" />
        </mxCell>
        <mxCell id="1c1d494c118603dd-33" style="rounded=0;html=1;labelBackgroundColor=none;startArrow=none;startFill=0;startSize=5;endArrow=classicThin;endFill=1;endSize=5;jettySize=auto;orthogonalLoop=1;strokeWidth=1;fontFamily=Verdana;fontSize=12" parent="1c1d494c118603dd-4" edge="1">
          <mxGeometry relative="1" as="geometry">
            <mxPoint x="61.25" y="268" as="targetPoint" />
          </mxGeometry>
        </mxCell>
        <mxCell id="1c1d494c118603dd-38" style="edgeStyle=none;rounded=0;html=1;labelBackgroundColor=none;startArrow=none;startFill=0;startSize=5;endArrow=classicThin;endFill=1;endSize=5;jettySize=auto;orthogonalLoop=1;strokeWidth=1;fontFamily=Verdana;fontSize=12" parent="1c1d494c118603dd-4" edge="1">
          <mxGeometry relative="1" as="geometry">
            <mxPoint x="35" y="367.2222222222222" as="targetPoint" />
          </mxGeometry>
        </mxCell>
        <mxCell id="1c1d494c118603dd-37" style="edgeStyle=none;rounded=0;html=1;labelBackgroundColor=none;startArrow=none;startFill=0;startSize=5;endArrow=classicThin;endFill=1;endSize=5;jettySize=auto;orthogonalLoop=1;strokeWidth=1;fontFamily=Verdana;fontSize=12" parent="1c1d494c118603dd-4" edge="1">
          <mxGeometry relative="1" as="geometry">
            <mxPoint x="70.5645161290322" y="298" as="sourcePoint" />
          </mxGeometry>
        </mxCell>
        <mxCell id="1c1d494c118603dd-48" style="edgeStyle=none;rounded=0;html=1;dashed=1;labelBackgroundColor=none;startArrow=none;startFill=0;startSize=5;endArrow=oval;endFill=0;endSize=5;jettySize=auto;orthogonalLoop=1;strokeWidth=1;fontFamily=Verdana;fontSize=12" parent="1c1d494c118603dd-4" edge="1">
          <mxGeometry relative="1" as="geometry">
            <mxPoint x="160" y="257.8780487804878" as="sourcePoint" />
          </mxGeometry>
        </mxCell>
        <mxCell id="1c1d494c118603dd-49" style="edgeStyle=none;rounded=0;html=1;dashed=1;labelBackgroundColor=none;startArrow=none;startFill=0;startSize=5;endArrow=oval;endFill=0;endSize=5;jettySize=auto;orthogonalLoop=1;strokeWidth=1;fontFamily=Verdana;fontSize=12" parent="1c1d494c118603dd-4" edge="1">
          <mxGeometry relative="1" as="geometry">
            <mxPoint x="85" y="281.81355932203394" as="targetPoint" />
          </mxGeometry>
        </mxCell>
        <mxCell id="1c1d494c118603dd-50" style="edgeStyle=none;rounded=0;html=1;dashed=1;labelBackgroundColor=none;startArrow=none;startFill=0;startSize=5;endArrow=oval;endFill=0;endSize=5;jettySize=auto;orthogonalLoop=1;strokeWidth=1;fontFamily=Verdana;fontSize=12" parent="1c1d494c118603dd-4" edge="1">
          <mxGeometry relative="1" as="geometry">
            <mxPoint x="154.74358974358984" y="415" as="sourcePoint" />
          </mxGeometry>
        </mxCell>
        <mxCell id="1c1d494c118603dd-51" style="edgeStyle=none;rounded=0;html=1;dashed=1;labelBackgroundColor=none;startArrow=none;startFill=0;startSize=5;endArrow=oval;endFill=0;endSize=5;jettySize=auto;orthogonalLoop=1;strokeWidth=1;fontFamily=Verdana;fontSize=12" parent="1c1d494c118603dd-4" edge="1">
          <mxGeometry relative="1" as="geometry">
            <mxPoint x="35" y="389.53846153846155" as="targetPoint" />
          </mxGeometry>
        </mxCell>
        <mxCell id="G5NvQeED7JfpQ89PD2dX-12" style="edgeStyle=orthogonalEdgeStyle;rounded=0;orthogonalLoop=1;jettySize=auto;html=1;entryX=0.5;entryY=0;entryDx=0;entryDy=0;" edge="1" parent="1c1d494c118603dd-4" source="soN0B9OmbE9krU4sowRZ-10" target="G5NvQeED7JfpQ89PD2dX-4">
          <mxGeometry relative="1" as="geometry" />
        </mxCell>
        <mxCell id="soN0B9OmbE9krU4sowRZ-10" value="EP01-03_0" style="rounded=1;whiteSpace=wrap;html=1;shadow=0;comic=0;labelBackgroundColor=none;strokeWidth=1;fontFamily=Verdana;fontSize=12;align=center;arcSize=50;" parent="1c1d494c118603dd-4" vertex="1">
          <mxGeometry x="200" y="870" width="100" height="30" as="geometry" />
        </mxCell>
        <mxCell id="soN0B9OmbE9krU4sowRZ-20" style="edgeStyle=none;rounded=0;orthogonalLoop=1;jettySize=auto;html=1;entryX=1;entryY=0.75;entryDx=0;entryDy=0;dashed=1;startArrow=oval;startFill=0;exitX=0;exitY=0;exitDx=10;exitDy=10;exitPerimeter=0;" parent="1c1d494c118603dd-4" source="soN0B9OmbE9krU4sowRZ-19" target="soN0B9OmbE9krU4sowRZ-10" edge="1">
          <mxGeometry relative="1" as="geometry">
            <mxPoint x="336.2942105263159" y="930" as="sourcePoint" />
          </mxGeometry>
        </mxCell>
        <mxCell id="soN0B9OmbE9krU4sowRZ-19" value="吉普车上" style="shape=card;whiteSpace=wrap;html=1;size=20;fillColor=#d5e8d4;strokeColor=#82b366;" parent="1c1d494c118603dd-4" vertex="1">
          <mxGeometry x="327.69" y="940" width="70" height="40" as="geometry" />
        </mxCell>
        <mxCell id="soN0B9OmbE9krU4sowRZ-22" style="edgeStyle=none;rounded=0;orthogonalLoop=1;jettySize=auto;html=1;entryX=0;entryY=0.75;entryDx=0;entryDy=0;dashed=1;startArrow=oval;startFill=0;exitX=0;exitY=0;exitDx=65;exitDy=0;exitPerimeter=0;" parent="1c1d494c118603dd-4" source="soN0B9OmbE9krU4sowRZ-21" target="soN0B9OmbE9krU4sowRZ-10" edge="1">
          <mxGeometry relative="1" as="geometry">
            <mxPoint x="176.69354838709694" y="868" as="sourcePoint" />
          </mxGeometry>
        </mxCell>
        <mxCell id="soN0B9OmbE9krU4sowRZ-25" value="" style="ellipse;html=1;shape=endState;fillColor=#000000;strokeColor=#ff0000;" parent="1c1d494c118603dd-4" vertex="1">
          <mxGeometry x="235" y="1470" width="30" height="30" as="geometry" />
        </mxCell>
        <mxCell id="soN0B9OmbE9krU4sowRZ-21" value="EP01-03" style="shape=note;whiteSpace=wrap;html=1;rounded=0;shadow=0;comic=0;labelBackgroundColor=none;strokeWidth=1;fontFamily=Verdana;fontSize=12;align=center;size=20;fillColor=#dae8fc;strokeColor=#6c8ebf;" parent="1c1d494c118603dd-4" vertex="1">
          <mxGeometry x="120" y="938" width="85" height="42" as="geometry" />
        </mxCell>
        <mxCell id="o7VnYXeNRA8b91w_9cNe-17" style="edgeStyle=orthogonalEdgeStyle;rounded=0;orthogonalLoop=1;jettySize=auto;html=1;entryX=0.5;entryY=0;entryDx=0;entryDy=0;strokeColor=#000000;exitX=0.5;exitY=1;exitDx=0;exitDy=0;" parent="1c1d494c118603dd-4" source="G5NvQeED7JfpQ89PD2dX-11" target="soN0B9OmbE9krU4sowRZ-25" edge="1">
          <mxGeometry relative="1" as="geometry">
            <mxPoint x="250" y="1420" as="sourcePoint" />
          </mxGeometry>
        </mxCell>
        <mxCell id="o7VnYXeNRA8b91w_9cNe-5" style="edgeStyle=none;rounded=0;orthogonalLoop=1;jettySize=auto;html=1;entryX=1;entryY=0.75;entryDx=0;entryDy=0;dashed=1;startArrow=oval;startFill=0;exitX=0;exitY=0;exitDx=10;exitDy=10;exitPerimeter=0;" parent="1c1d494c118603dd-4" source="o7VnYXeNRA8b91w_9cNe-6" edge="1">
          <mxGeometry relative="1" as="geometry">
            <mxPoint x="-233.7057894736841" y="2447.5" as="sourcePoint" />
            <mxPoint x="299.99999999999994" y="1350" as="targetPoint" />
          </mxGeometry>
        </mxCell>
        <mxCell id="o7VnYXeNRA8b91w_9cNe-6" value="&lt;span style=&quot;font-size: 14px&quot;&gt;长桥&lt;/span&gt;" style="shape=card;whiteSpace=wrap;html=1;size=20;fillColor=#d5e8d4;strokeColor=#82b366;" parent="1c1d494c118603dd-4" vertex="1">
          <mxGeometry x="327.69" y="1397.5" width="70" height="40" as="geometry" />
        </mxCell>
        <mxCell id="o7VnYXeNRA8b91w_9cNe-18" style="edgeStyle=none;rounded=0;orthogonalLoop=1;jettySize=auto;html=1;entryX=0;entryY=0.75;entryDx=0;entryDy=0;dashed=1;startArrow=oval;startFill=0;exitX=0;exitY=0;exitDx=65;exitDy=0;exitPerimeter=0;" parent="1c1d494c118603dd-4" source="o7VnYXeNRA8b91w_9cNe-19" edge="1">
          <mxGeometry relative="1" as="geometry">
            <mxPoint x="-388.30645161290306" y="2385.5" as="sourcePoint" />
            <mxPoint x="204.99999999999994" y="1350" as="targetPoint" />
          </mxGeometry>
        </mxCell>
        <mxCell id="o7VnYXeNRA8b91w_9cNe-19" value="EP01-03" style="shape=note;whiteSpace=wrap;html=1;rounded=0;shadow=0;comic=0;labelBackgroundColor=none;strokeWidth=1;fontFamily=Verdana;fontSize=12;align=center;size=20;fillColor=#dae8fc;strokeColor=#6c8ebf;" parent="1c1d494c118603dd-4" vertex="1">
          <mxGeometry x="124.99999999999994" y="1395.5" width="85" height="42" as="geometry" />
        </mxCell>
        <mxCell id="G5NvQeED7JfpQ89PD2dX-14" style="edgeStyle=orthogonalEdgeStyle;rounded=0;orthogonalLoop=1;jettySize=auto;html=1;entryX=0.5;entryY=0;entryDx=0;entryDy=0;" edge="1" parent="1c1d494c118603dd-4" source="G5NvQeED7JfpQ89PD2dX-4" target="G5NvQeED7JfpQ89PD2dX-13">
          <mxGeometry relative="1" as="geometry" />
        </mxCell>
        <mxCell id="G5NvQeED7JfpQ89PD2dX-4" value="EP01-03_choicepanel1" style="rhombus;whiteSpace=wrap;html=1;rounded=0;shadow=0;comic=0;strokeWidth=1;fontFamily=Verdana;" vertex="1" parent="1c1d494c118603dd-4">
          <mxGeometry x="155" y="1110" width="190" height="80" as="geometry" />
        </mxCell>
        <mxCell id="G5NvQeED7JfpQ89PD2dX-6" value="&lt;span style=&quot;color: rgb(51 , 51 , 51) ; font-family: &amp;#34;verdana&amp;#34;&quot;&gt;EP01-03_choice_1&lt;/span&gt;" style="rounded=1;whiteSpace=wrap;html=1;shadow=0;comic=0;labelBackgroundColor=none;strokeWidth=1;fontFamily=Verdana;fontSize=12;align=center;arcSize=50;" vertex="1" parent="1c1d494c118603dd-4">
          <mxGeometry x="20" y="1135" width="100" height="30" as="geometry" />
        </mxCell>
        <mxCell id="G5NvQeED7JfpQ89PD2dX-1" value="" style="edgeStyle=orthogonalEdgeStyle;rounded=0;orthogonalLoop=1;jettySize=auto;html=1;fontFamily=Verdana;" edge="1" parent="1c1d494c118603dd-4" source="G5NvQeED7JfpQ89PD2dX-4" target="G5NvQeED7JfpQ89PD2dX-6">
          <mxGeometry relative="1" as="geometry" />
        </mxCell>
        <mxCell id="G5NvQeED7JfpQ89PD2dX-8" value="&lt;span style=&quot;color: rgb(51 , 51 , 51) ; font-family: &amp;#34;verdana&amp;#34;&quot;&gt;EP01-03_choice_3&lt;/span&gt;" style="rounded=1;whiteSpace=wrap;html=1;shadow=0;comic=0;labelBackgroundColor=none;strokeWidth=1;fontFamily=Verdana;fontSize=12;align=center;arcSize=50;" vertex="1" parent="1c1d494c118603dd-4">
          <mxGeometry x="100" y="1240" width="100" height="30" as="geometry" />
        </mxCell>
        <mxCell id="G5NvQeED7JfpQ89PD2dX-2" value="" style="edgeStyle=orthogonalEdgeStyle;rounded=0;orthogonalLoop=1;jettySize=auto;html=1;fontFamily=Verdana;" edge="1" parent="1c1d494c118603dd-4" source="G5NvQeED7JfpQ89PD2dX-4" target="G5NvQeED7JfpQ89PD2dX-8">
          <mxGeometry relative="1" as="geometry" />
        </mxCell>
        <mxCell id="G5NvQeED7JfpQ89PD2dX-10" value="&lt;span style=&quot;color: rgb(51 , 51 , 51) ; font-family: &amp;#34;verdana&amp;#34;&quot;&gt;EP01-03_choice_2&lt;/span&gt;" style="rounded=1;whiteSpace=wrap;html=1;shadow=0;comic=0;labelBackgroundColor=none;strokeWidth=1;fontFamily=Verdana;fontSize=12;align=center;arcSize=50;" vertex="1" parent="1c1d494c118603dd-4">
          <mxGeometry x="380" y="1135" width="100" height="30" as="geometry" />
        </mxCell>
        <mxCell id="G5NvQeED7JfpQ89PD2dX-3" value="" style="edgeStyle=orthogonalEdgeStyle;rounded=0;orthogonalLoop=1;jettySize=auto;html=1;fontFamily=Verdana;" edge="1" parent="1c1d494c118603dd-4" source="G5NvQeED7JfpQ89PD2dX-4" target="G5NvQeED7JfpQ89PD2dX-10">
          <mxGeometry relative="1" as="geometry" />
        </mxCell>
        <mxCell id="G5NvQeED7JfpQ89PD2dX-11" value="EP01-03_1" style="rounded=1;whiteSpace=wrap;html=1;shadow=0;comic=0;labelBackgroundColor=none;strokeWidth=1;fontFamily=Verdana;fontSize=12;align=center;arcSize=50;" vertex="1" parent="1c1d494c118603dd-4">
          <mxGeometry x="200" y="1320" width="100" height="30" as="geometry" />
        </mxCell>
        <mxCell id="G5NvQeED7JfpQ89PD2dX-5" style="edgeStyle=orthogonalEdgeStyle;rounded=0;orthogonalLoop=1;jettySize=auto;html=1;exitX=0.5;exitY=1;exitDx=0;exitDy=0;entryX=0;entryY=0.5;entryDx=0;entryDy=0;fontFamily=Verdana;" edge="1" parent="1c1d494c118603dd-4" source="G5NvQeED7JfpQ89PD2dX-6" target="G5NvQeED7JfpQ89PD2dX-11">
          <mxGeometry relative="1" as="geometry" />
        </mxCell>
        <mxCell id="G5NvQeED7JfpQ89PD2dX-7" value="" style="edgeStyle=orthogonalEdgeStyle;rounded=0;orthogonalLoop=1;jettySize=auto;html=1;fontFamily=Verdana;" edge="1" parent="1c1d494c118603dd-4" source="G5NvQeED7JfpQ89PD2dX-8" target="G5NvQeED7JfpQ89PD2dX-11">
          <mxGeometry relative="1" as="geometry">
            <Array as="points">
              <mxPoint x="150" y="1290" />
              <mxPoint x="250" y="1290" />
            </Array>
          </mxGeometry>
        </mxCell>
        <mxCell id="G5NvQeED7JfpQ89PD2dX-9" style="edgeStyle=orthogonalEdgeStyle;rounded=0;orthogonalLoop=1;jettySize=auto;html=1;exitX=0.5;exitY=1;exitDx=0;exitDy=0;entryX=1;entryY=0.5;entryDx=0;entryDy=0;fontFamily=Verdana;" edge="1" parent="1c1d494c118603dd-4" source="G5NvQeED7JfpQ89PD2dX-10" target="G5NvQeED7JfpQ89PD2dX-11">
          <mxGeometry relative="1" as="geometry" />
        </mxCell>
        <mxCell id="G5NvQeED7JfpQ89PD2dX-13" value="&lt;span style=&quot;color: rgb(51 , 51 , 51) ; font-family: &amp;#34;verdana&amp;#34;&quot;&gt;EP01-03_choice_4&lt;/span&gt;" style="rounded=1;whiteSpace=wrap;html=1;shadow=0;comic=0;labelBackgroundColor=none;strokeWidth=1;fontFamily=Verdana;fontSize=12;align=center;arcSize=50;" vertex="1" parent="1c1d494c118603dd-4">
          <mxGeometry x="297.69" y="1240" width="100" height="30" as="geometry" />
        </mxCell>
        <mxCell id="o7VnYXeNRA8b91w_9cNe-16" value="四个选项全部选择后进入下一label" style="shape=callout;whiteSpace=wrap;html=1;perimeter=calloutPerimeter;position2=0;" parent="1c1d494c118603dd-4" vertex="1">
          <mxGeometry x="460" y="1190" width="120" height="80" as="geometry" />
        </mxCell>
        <mxCell id="o7VnYXeNRA8b91w_9cNe-47" style="edgeStyle=orthogonalEdgeStyle;rounded=0;orthogonalLoop=1;jettySize=auto;html=1;entryX=0.5;entryY=0;entryDx=0;entryDy=0;strokeColor=#000000;" parent="1c1d494c118603dd-1" source="o7VnYXeNRA8b91w_9cNe-23" target="soN0B9OmbE9krU4sowRZ-10" edge="1">
          <mxGeometry relative="1" as="geometry" />
        </mxCell>
        <mxCell id="o7VnYXeNRA8b91w_9cNe-20" style="edgeStyle=orthogonalEdgeStyle;rounded=0;orthogonalLoop=1;jettySize=auto;html=1;strokeColor=#000000;" parent="1" source="CkhX5bCaa37D4_O5Mb_i-20" edge="1">
          <mxGeometry relative="1" as="geometry">
            <mxPoint x="340" y="-390" as="targetPoint" />
            <Array as="points">
              <mxPoint x="422" y="-430" />
              <mxPoint x="340" y="-430" />
            </Array>
          </mxGeometry>
        </mxCell>
        <mxCell id="G5NvQeED7JfpQ89PD2dX-15" style="edgeStyle=orthogonalEdgeStyle;rounded=0;orthogonalLoop=1;jettySize=auto;html=1;" edge="1" parent="1" source="G5NvQeED7JfpQ89PD2dX-13">
          <mxGeometry relative="1" as="geometry">
            <mxPoint x="910" y="260" as="targetPoint" />
            <Array as="points">
              <mxPoint x="1008" y="230" />
              <mxPoint x="910" y="230" />
            </Array>
          </mxGeometry>
        </mxCell>
      </root>
    </mxGraphModel>
  </diagram>
  <diagram id="dmDB2ZcVdiuMjPRwZuYF" name="关卡平面图">
    <mxGraphModel dx="1422" dy="762" grid="1" gridSize="10" guides="1" tooltips="1" connect="1" arrows="1" fold="1" page="1" pageScale="1" pageWidth="827" pageHeight="1169" math="0" shadow="0">
      <root>
        <mxCell id="ojgNweESeSlG1wubFBOF-0" />
        <mxCell id="ojgNweESeSlG1wubFBOF-1" parent="ojgNweESeSlG1wubFBOF-0" />
        <mxCell id="32pKdByRdfm2AMbjOZ1x-0" value="" style="rounded=0;whiteSpace=wrap;html=1;" parent="ojgNweESeSlG1wubFBOF-1" vertex="1">
          <mxGeometry x="40" y="150" width="930" height="560" as="geometry" />
        </mxCell>
        <mxCell id="32pKdByRdfm2AMbjOZ1x-1" value="&lt;span style=&quot;font-size: 20px&quot;&gt;码头木栈道&lt;/span&gt;" style="rounded=0;whiteSpace=wrap;html=1;" parent="ojgNweESeSlG1wubFBOF-1" vertex="1">
          <mxGeometry x="90" y="420" width="290" height="53.75" as="geometry" />
        </mxCell>
        <mxCell id="32pKdByRdfm2AMbjOZ1x-10" value="&lt;span style=&quot;font-size: 20px&quot;&gt;检查站&lt;/span&gt;" style="rounded=0;whiteSpace=wrap;html=1;" parent="ojgNweESeSlG1wubFBOF-1" vertex="1">
          <mxGeometry x="380" y="330" width="360" height="240" as="geometry" />
        </mxCell>
        <mxCell id="32pKdByRdfm2AMbjOZ1x-11" value="铁门" style="shape=process;whiteSpace=wrap;html=1;backgroundOutline=1;rotation=90;" parent="ojgNweESeSlG1wubFBOF-1" vertex="1">
          <mxGeometry x="460" y="439.38" width="60" height="15" as="geometry" />
        </mxCell>
        <mxCell id="32pKdByRdfm2AMbjOZ1x-12" value="" style="rounded=0;whiteSpace=wrap;html=1;" parent="ojgNweESeSlG1wubFBOF-1" vertex="1">
          <mxGeometry x="380" y="400" width="100" height="100" as="geometry" />
        </mxCell>
        <mxCell id="32pKdByRdfm2AMbjOZ1x-16" value="&lt;h1&gt;岛上码头&lt;/h1&gt;" style="text;html=1;strokeColor=none;fillColor=none;spacing=5;spacingTop=-20;whiteSpace=wrap;overflow=hidden;rounded=0;" parent="ojgNweESeSlG1wubFBOF-1" vertex="1">
          <mxGeometry x="40" y="30" width="190" height="120" as="geometry" />
        </mxCell>
        <mxCell id="2-35yjRWeZZgqv3ZDKaf-1" value="" style="shape=umlActor;verticalLabelPosition=bottom;verticalAlign=top;html=1;outlineConnect=0;" parent="ojgNweESeSlG1wubFBOF-1" vertex="1">
          <mxGeometry x="310" y="416.88" width="30" height="60" as="geometry" />
        </mxCell>
        <mxCell id="G3A9UKzgKmthC-wFT3gr-1" value="通缉牌" style="shape=callout;whiteSpace=wrap;html=1;perimeter=calloutPerimeter;position2=0.5;size=10;position=0.5;" vertex="1" parent="ojgNweESeSlG1wubFBOF-1">
          <mxGeometry x="400" y="400" width="60" height="30" as="geometry" />
        </mxCell>
        <mxCell id="G3A9UKzgKmthC-wFT3gr-4" value="" style="endArrow=classic;html=1;entryX=1;entryY=0.5;entryDx=0;entryDy=0;fillColor=#d5e8d4;strokeColor=#82b366;" edge="1" parent="ojgNweESeSlG1wubFBOF-1" source="2-35yjRWeZZgqv3ZDKaf-1" target="32pKdByRdfm2AMbjOZ1x-1">
          <mxGeometry width="50" height="50" relative="1" as="geometry">
            <mxPoint x="350" y="380" as="sourcePoint" />
            <mxPoint x="400" y="330" as="targetPoint" />
          </mxGeometry>
        </mxCell>
      </root>
    </mxGraphModel>
  </diagram>
</mxfile>
